# xmcd
#
# Track frame offsets: 
#        150
#        16810
#        37355
#        48952
#        73627
#        93445
#        122402
#
# Disc length: 1885 seconds
#
# Revision: 0
# Processed by: cddbd v1.5.2PL0 Copyright (c) Steve Scherf et al.
# Submitted via: ExactAudioCopy v1.0b4
#
DISCID=56075b07
DTITLE=John Weeks Band - The John Weeks Band
DYEAR=2014
DGENRE=Blues Rock
TTITLE0=All Night
TTITLE1=Devil In My House
TTITLE2=Why Don't We Sleep On It
TTITLE3=How Can You Love Me
TTITLE4=I Want To Get Back Home
TTITLE5=You Never Say What You Mean
TTITLE6=Moving On
EXTD=
EXTT0=
EXTT1=
EXTT2=
EXTT3=
EXTT4=
EXTT5=
EXTT6=
PLAYORDER=
